<?xml version="1.0" encoding="UTF-8" standalone="no"?>
<!-- Created with Inkscape (http://www.inkscape.org/) -->

<svg
  width="100%"
  height="auto"
  viewBox="88 0 200 200"
  version="1.1"
  id="svg1"
  xmlns="http://www.w3.org/2000/svg"
  xmlns:svg="http://www.w3.org/2000/svg"
  preserveAspectrRatio="xMidYMid meet"
  style="tranform-origin: 0 50%"
>
  <defs>
    <rect
        x="142.48702"
        y="472.63987"
        width="443.09988"
        height="107.73409"
        id="rect2" />
    <filter
        id="mask-powermask-path-effect4_inverse"
        style="color-interpolation-filters:sRGB"
        height="100"
        width="100"
        x="-50"
        y="-50">
      <feColorMatrix
          id="mask-powermask-path-effect4_primitive1"
          values="1"
          type="saturate"
          result="fbSourceGraphic" />
      <feColorMatrix
          id="mask-powermask-path-effect4_primitive2"
          values="-1 0 0 0 1 0 -1 0 0 1 0 0 -1 0 1 0 0 0 1 0 "
          in="fbSourceGraphic" />
    </filter>
  </defs>
  <g
      id="layer1"
      style="display:inline">
    <path
        id="text1"
        style="font-weight:bold;font-size:20.4611px;line-height:0;font-family:Sans;-inkscape-font-specification:'Sans, Bold';font-variation-settings:'opsz' 32, 'wght' 700;letter-spacing:-1.4314px;fill:#ef4444;fill-opacity:1;stroke:#000000;stroke-width:1.2309"
        d="M 100.26106,1.7378784 C 76.376708,1.96976 54.028378,12.491593 33.216577,33.303394 12.57861,53.941361 2.0857005,76.260766 1.7378784,100.26106 c -0.2898492,23.94232 9.9712816,46.31945 30.7831336,67.13131 20.86983,20.86982 43.275828,31.15981 67.21812,30.86995 24.000298,-0.34783 46.319188,-10.84074 66.957148,-31.4787 20.81181,-20.8118 31.30478,-43.18899 31.4787,-67.131305 0.1764,-18.254959 -5.71749,-35.570909 -17.68212,-51.947733 L 153.8118,74.38564 c 1.4812,4.612772 2.00798,9.556568 1.58027,14.831653 -0.46374,6.260931 -2.52201,13.014817 -6.1743,20.261297 -3.65222,7.24644 -9.36205,14.75344 -17.13023,22.52162 -7.24649,7.24649 -14.34805,12.78269 -21.30464,16.60881 -6.89864,3.76816 -13.942548,6.00005 -21.131008,6.69571 -6.376906,0.57976 -12.347862,-0.23155 -17.913118,-2.43447 -5.507306,-2.26091 -10.405822,-5.53636 -14.695744,-9.82628 -4.289928,-4.28992 -7.56538,-9.18844 -9.826274,-14.69574 -0.558444,-1.36031 -1.031906,-2.74548 -1.420585,-4.1553 v -5.2e-4 L 24.707019,103.10327 c -7.809659,-7.810344 -7.809659,-20.472687 0,-28.283031 7.810344,-7.809657 20.472684,-7.809657 28.283028,0 l 4.723743,4.723226 c 2.883826,-3.780757 6.283549,-7.628687 10.198861,-11.543998 7.536314,-7.536314 15.04382,-13.246661 22.522139,-17.130737 7.594293,-3.884152 14.46357,-6.000131 20.60856,-6.347933 5.26403,-0.277076 10.08706,0.25503 14.46837,1.596285 l 26.70173,-26.70173 C 135.8028,7.4097392 118.48549,1.5172472 100.26106,1.7378784 Z" />
    <path
        style="baseline-shift:baseline;display:inline;overflow:visible;opacity:1;fill:#22c55e;fill-opacity:1;stroke:#1a1a1a;stroke-width:1.23;stroke-linecap:round;stroke-dasharray:none;enable-background:accumulate;stop-color:#000000;stop-opacity:1"
        d="m 163.89844,19.480469 c -2.28931,0.613221 -4.37685,1.818318 -6.05274,3.49414 L 74.900391,105.92188 48.394531,79.416016 c -5.272068,-5.272021 -13.819729,-5.272021 -19.091797,0 -5.27202,5.272068 -5.27202,13.819728 0,19.091796 L 74.900391,144.10547 176.9375,42.066406 c 5.27202,-5.272068 5.27202,-13.819729 0,-19.091797 -3.41023,-3.410131 -8.38059,-4.742064 -13.03906,-3.49414 z"
        id="path2" />
  </g>
  <path
      id="text4"
      style="font-weight:bold;font-size:268.202px;line-height:0;font-family:Inter;-inkscape-font-specification:'Inter, Bold';letter-spacing:-2.72059px;fill:#ef4444;fill-opacity:1;stroke:#000000;stroke-width:1.2345;stroke-linecap:round;stroke-dasharray:none;stroke-opacity:1"
      d="m 270.12431,1.8044466 c -15.54544,-0.3387125 -34.13182,4.1867572 -41.25882,19.5864364 -5.4987,11.739121 -3.39954,24.929491 -3.82401,37.457049 -8.36812,0 -16.73622,0 -25.10434,0 0,10.120642 0,20.241282 0,30.361923 8.36812,0 16.73622,0 25.10434,0 0,36.145075 0,72.290145 0,108.435215 12.88073,0 25.76148,0 38.64221,0 0,-36.14507 0,-72.29014 0,-108.435215 14.70467,0 29.40934,0 44.114,0 0,36.145075 0,72.290145 0,108.435215 12.88073,0 25.76147,0 38.6422,0 0,-36.14507 0,-72.29014 0,-108.435215 9.46352,0 18.92703,0 28.39053,0 0,-10.120641 0,-20.241281 0,-30.361923 -9.4635,0 -18.92701,0 -28.39053,0 0.52669,-7.726119 -1.79402,-16.613138 3.41741,-23.132423 7.02267,-5.537349 16.5452,-2.940584 24.83487,-3.549139 0.32263,-9.844092 0.0461,-20.287404 0.13825,-30.3619234 -17.31679,0.5498226 -35.99355,-2.49018554 -51.61364,6.7773224 -12.67597,7.256934 -16.25907,22.870086 -15.41909,36.460649 0,4.601839 0,9.203676 0,13.805514 -14.70466,0 -29.40933,0 -44.114,0 0.5267,-7.726118 -1.79402,-16.613142 3.41741,-23.132423 7.02266,-5.537352 16.5452,-2.940582 24.83487,-3.549139 0.32263,-9.844092 0.0461,-20.287404 0.13825,-30.3619234 -7.31664,0 -14.63327,0 -21.94991,0 z" />
</svg>