<?xml version="1.0" encoding="UTF-8" standalone="no"?>
<!-- Created with Inkscape (http://www.inkscape.org/) -->

<svg
  width="200mm"
  height="200mm"
  viewBox="0 0 200 200"
  version="1.1"
  id="svg1"
  xmlns="http://www.w3.org/2000/svg"
  xmlns:svg="http://www.w3.org/2000/svg"
>
  <defs
    id="defs1"
  >
    <rect
      x="142.48702"
      y="472.63987"
      width="443.09988"
      height="107.73409"
      id="rect2" />
    <filter
      id="mask-powermask-path-effect4_inverse"
      style="color-interpolation-filters:sRGB"
      height="100"
      width="100"
      x="-50"
      y="-50">
      <feColorMatrix
        id="mask-powermask-path-effect4_primitive1"
        values="1"
        type="saturate"
        result="fbSourceGraphic" />
      <feColorMatrix
        id="mask-powermask-path-effect4_primitive2"
        values="-1 0 0 0 1 0 -1 0 0 1 0 0 -1 0 1 0 0 0 1 0 "
        in="fbSourceGraphic" />
    </filter>
  </defs>
  <g>
    <path
      id="text1"
      style="font-weight:bold;font-size:20.4611px;line-height:0;font-family:Sans;-inkscape-font-specification:'Sans, Bold';font-variation-settings:'opsz' 32, 'wght' 700;letter-spacing:-1.4314px;fill:#ff5555;fill-opacity:1;stroke:#000000;stroke-width:1.2309"
      d="M 100.26106,1.7378784 C 76.376708,1.96976 54.028378,12.491593 33.216577,33.303394 12.57861,53.941361 2.0857005,76.260766 1.7378784,100.26106 c -0.2898492,23.94232 9.9712816,46.31945 30.7831336,67.13131 20.86983,20.86982 43.275828,31.15981 67.21812,30.86995 24.000298,-0.34783 46.319188,-10.84074 66.957148,-31.4787 20.81181,-20.8118 31.30478,-43.18899 31.4787,-67.131305 0.1764,-18.254959 -5.71749,-35.570909 -17.68212,-51.947733 L 153.8118,74.38564 c 1.4812,4.612772 2.00798,9.556568 1.58027,14.831653 -0.46374,6.260931 -2.52201,13.014817 -6.1743,20.261297 -3.65222,7.24644 -9.36205,14.75344 -17.13023,22.52162 -7.24649,7.24649 -14.34805,12.78269 -21.30464,16.60881 -6.89864,3.76816 -13.942548,6.00005 -21.131008,6.69571 -6.376906,0.57976 -12.347862,-0.23155 -17.913118,-2.43447 -5.507306,-2.26091 -10.405822,-5.53636 -14.695744,-9.82628 -4.289928,-4.28992 -7.56538,-9.18844 -9.826274,-14.69574 -0.558444,-1.36031 -1.031906,-2.74548 -1.420585,-4.1553 v -5.2e-4 L 24.707019,103.10327 c -7.809659,-7.810344 -7.809659,-20.472687 0,-28.283031 7.810344,-7.809657 20.472684,-7.809657 28.283028,0 l 4.723743,4.723226 c 2.883826,-3.780757 6.283549,-7.628687 10.198861,-11.543998 7.536314,-7.536314 15.04382,-13.246661 22.522139,-17.130737 7.594293,-3.884152 14.46357,-6.000131 20.60856,-6.347933 5.26403,-0.277076 10.08706,0.25503 14.46837,1.596285 l 26.70173,-26.70173 C 135.8028,7.4097392 118.48549,1.5172472 100.26106,1.7378784 Z" />
    <path
      style="baseline-shift:baseline;display:inline;overflow:visible;opacity:1;stroke-linecap:round;enable-background:accumulate;stop-color:#000000;stop-opacity:1;fill:#50fa7b;stroke:#1a1a1a;fill-opacity:1;stroke-width:1.23;stroke-dasharray:none"
      d="m 163.89844,19.480469 c -2.28931,0.613221 -4.37685,1.818318 -6.05274,3.49414 L 74.900391,105.92188 48.394531,79.416016 c -5.272068,-5.272021 -13.819729,-5.272021 -19.091797,0 -5.27202,5.272068 -5.27202,13.819728 0,19.091796 L 74.900391,144.10547 176.9375,42.066406 c 5.27202,-5.272068 5.27202,-13.819729 0,-19.091797 -3.41023,-3.410131 -8.38059,-4.742064 -13.03906,-3.49414 z"
      id="path2"
    />
  </g>
</svg>
